<svg width="128" height="128" viewBox="0 0 128 128" fill="none" xmlns="http://www.w3.org/2000/svg">
<circle cx="64" cy="64" r="64" fill="url(#paint0_linear)"/>
<g filter="url(#filter0_d)">
<path fill-rule="evenodd" clip-rule="evenodd" d="M58.118 25.9147C58.5032 25.3432 59.1517 25 59.8462 25H68.1538C68.8483 25 69.4968 25.3432 69.882 25.9147L73.4192 31.1622H88.9231C90.0701 31.1622 91 32.0818 91 33.2162V98.9459C91 100.08 90.0701 101 88.9231 101H39.0769C37.9299 101 37 100.08 37 98.9459V33.2162C37 32.0818 37.9299 31.1622 39.0769 31.1622H54.5808L58.118 25.9147ZM59.5731 31.1622H68.4269L67.0423 29.1081H60.9577L59.5731 31.1622ZM41.1538 35.2703V96.8919H86.8462V35.2703H81.7269L80.3423 37.3243H82.6923C83.8394 37.3243 84.7692 38.244 84.7692 39.3784V92.7838C84.7692 93.9182 83.8394 94.8378 82.6923 94.8378H45.3077C44.1606 94.8378 43.2308 93.9182 43.2308 92.7838V39.3784C43.2308 38.244 44.1606 37.3243 45.3077 37.3243H47.6577L46.2731 35.2703H41.1538ZM51.2654 35.2703L52.65 37.3243H75.35L76.7346 35.2703H51.2654ZM72.5808 41.4324H55.4192L56.8038 43.4865H71.1962L72.5808 41.4324ZM50.4269 41.4324H47.3846V90.7297H80.6154V41.4324H77.5731L74.0358 46.6799C73.6506 47.2514 73.0021 47.5946 72.3077 47.5946H55.6923C54.9979 47.5946 54.3494 47.2514 53.9642 46.6799L50.4269 41.4324ZM51.5385 55.8108C51.5385 54.6764 52.4683 53.7568 53.6154 53.7568H74.3846C75.5317 53.7568 76.4615 54.6764 76.4615 55.8108C76.4615 56.9452 75.5317 57.8649 74.3846 57.8649H53.6154C52.4683 57.8649 51.5385 56.9452 51.5385 55.8108ZM51.5385 64.027C51.5385 62.8926 52.4683 61.973 53.6154 61.973H74.3846C75.5317 61.973 76.4615 62.8926 76.4615 64.027C76.4615 65.1614 75.5317 66.0811 74.3846 66.0811H53.6154C52.4683 66.0811 51.5385 65.1614 51.5385 64.027ZM75.8532 70.7908C76.6643 71.593 76.6643 72.8935 75.8532 73.6957L63.3917 86.02C62.5806 86.8222 61.2656 86.8222 60.4545 86.02L54.2237 79.8578C53.4126 79.0557 53.4126 77.7551 54.2237 76.953C55.0348 76.1508 56.3498 76.1508 57.1609 76.953L61.9231 81.6627L72.916 70.7908C73.7271 69.9886 75.0421 69.9886 75.8532 70.7908Z" fill="white"/>
</g>
<defs>
<filter id="filter0_d" x="27" y="15" width="74" height="96" filterUnits="userSpaceOnUse" color-interpolation-filters="sRGB">
<feFlood flood-opacity="0" result="BackgroundImageFix"/>
<feColorMatrix in="SourceAlpha" type="matrix" values="0 0 0 0 0 0 0 0 0 0 0 0 0 0 0 0 0 0 127 0"/>
<feOffset/>
<feGaussianBlur stdDeviation="5"/>
<feColorMatrix type="matrix" values="0 0 0 0 0 0 0 0 0 0 0 0 0 0 0 0 0 0 0.3 0"/>
<feBlend mode="normal" in2="BackgroundImageFix" result="effect1_dropShadow"/>
<feBlend mode="normal" in="SourceGraphic" in2="effect1_dropShadow" result="shape"/>
</filter>
<linearGradient id="paint0_linear" x1="64" y1="0" x2="64" y2="128" gradientUnits="userSpaceOnUse">
<stop stop-color="#005F48"/>
<stop offset="1" stop-color="#04C000"/>
</linearGradient>
</defs>
</svg>
