<svg width="128" height="128" viewBox="0 0 128 128" fill="none" xmlns="http://www.w3.org/2000/svg">
<circle cx="64" cy="64" r="64" fill="url(#paint0_linear)"/>
<g filter="url(#filter0_d)">
<path fill-rule="evenodd" clip-rule="evenodd" d="M54.3967 25.4576C54.7858 24.8802 55.4408 24.5333 56.1422 24.5333H64.5333C65.2347 24.5333 65.8897 24.8802 66.2788 25.4576L69.8516 30.7604H85.5111C86.6697 30.7604 87.6089 31.6897 87.6089 32.836V61.8955H93.9022C95.0608 61.8955 96 62.8248 96 63.9712V99.2577C96 100.404 95.0608 101.333 93.9022 101.333H35.1644C34.0059 101.333 33.0667 100.404 33.0667 99.2577V32.836C33.0667 31.6897 34.0059 30.7604 35.1644 30.7604H50.824L54.3967 25.4576ZM55.8664 30.7604H64.8091L63.4106 28.6847H57.2649L55.8664 30.7604ZM83.4133 61.8955V34.9117H78.2427L76.8442 36.9874H79.2178C80.3763 36.9874 81.3155 37.9167 81.3155 39.0631V61.8955H83.4133ZM77.12 61.8955V41.1387H74.0471L70.4743 46.4415C70.0853 47.0189 69.4303 47.3658 68.7289 47.3658H51.9467C51.2453 47.3658 50.5903 47.0189 50.2012 46.4415L46.6284 41.1387H43.5555V61.8955H77.12ZM39.36 61.8955V39.0631C39.36 37.9167 40.2992 36.9874 41.4578 36.9874H43.8314L42.4328 34.9117H37.2622V61.8955H39.36ZM37.2622 67.7731V94.3307L53.8401 78.318L37.2622 67.7731ZM57.4615 80.6215L40.3165 97.182H88.7502L71.6052 80.6215L65.6677 84.3983C64.9767 84.8378 64.09 84.8378 63.3989 84.3983L57.4615 80.6215ZM75.2266 78.318L91.8044 94.3307V67.7731L75.2266 78.318ZM86.7597 66.0468H42.307L64.5333 80.1847L86.7597 66.0468ZM47.4753 34.9117L48.8738 36.9874H71.8017L73.2003 34.9117H47.4753ZM69.0047 41.1387H51.6708L53.0693 43.2144H67.6062L69.0047 41.1387ZM47.7511 55.6685C47.7511 54.5221 48.6903 53.5928 49.8489 53.5928H70.8267C71.9852 53.5928 72.9244 54.5221 72.9244 55.6685C72.9244 56.8148 71.9852 57.7441 70.8267 57.7441H49.8489C48.6903 57.7441 47.7511 56.8148 47.7511 55.6685Z" fill="white"/>
</g>
<defs>
<filter id="filter0_d" x="23.0667" y="14.5333" width="82.9333" height="96.8" filterUnits="userSpaceOnUse" color-interpolation-filters="sRGB">
<feFlood flood-opacity="0" result="BackgroundImageFix"/>
<feColorMatrix in="SourceAlpha" type="matrix" values="0 0 0 0 0 0 0 0 0 0 0 0 0 0 0 0 0 0 127 0"/>
<feOffset/>
<feGaussianBlur stdDeviation="5"/>
<feColorMatrix type="matrix" values="0 0 0 0 0 0 0 0 0 0 0 0 0 0 0 0 0 0 0.3 0"/>
<feBlend mode="normal" in2="BackgroundImageFix" result="effect1_dropShadow"/>
<feBlend mode="normal" in="SourceGraphic" in2="effect1_dropShadow" result="shape"/>
</filter>
<linearGradient id="paint0_linear" x1="64" y1="0" x2="64" y2="128" gradientUnits="userSpaceOnUse">
<stop stop-color="#3100F5"/>
<stop offset="1" stop-color="#00C6D2"/>
</linearGradient>
</defs>
</svg>
