<svg width="256" height="256" viewBox="0 0 256 256" fill="none" xmlns="http://www.w3.org/2000/svg">
<g clip-path="url(#clip0)">
<ellipse cx="18.8235" cy="128.538" rx="18.8235" ry="18.8235" fill="#5F9FFF"/>
<ellipse cx="127.462" cy="18.8235" rx="18.8235" ry="18.8235" fill="#5F9FFF"/>
<circle cx="127.462" cy="237.176" r="18.8235" fill="#5F9FFF"/>
<ellipse cx="237.176" cy="128.538" rx="18.8235" ry="18.8235" fill="#5F9FFF"/>
<mask id="mask0" mask-type="alpha" maskUnits="userSpaceOnUse" x="-20" y="-12" width="294" height="280">
<path d="M-19.3613 -11.8319H95.7311V96.8067H-19.3613V-11.8319Z" fill="#C4C4C4"/>
<path d="M158.118 -11.8319H273.21V96.8067H158.118V-11.8319Z" fill="#C4C4C4"/>
<path d="M-19.3613 159.193H95.7311V267.832H-19.3613V159.193Z" fill="#C4C4C4"/>
<path d="M158.118 159.193H273.21V267.832H158.118V159.193Z" fill="#C4C4C4"/>
</mask>
<g mask="url(#mask0)">
<path fill-rule="evenodd" clip-rule="evenodd" d="M128 23.6639C70.3767 23.6639 23.6639 70.3767 23.6639 128C23.6639 185.623 70.3767 232.336 128 232.336C185.623 232.336 232.336 185.623 232.336 128C232.336 70.3767 185.623 23.6639 128 23.6639ZM12.9076 128C12.9076 64.4362 64.4362 12.9076 128 12.9076C191.564 12.9076 243.092 64.4362 243.092 128C243.092 191.564 191.564 243.092 128 243.092C64.4362 243.092 12.9076 191.564 12.9076 128Z" fill="#404040"/>
</g>
<g clip-path="url(#clip1)">
<ellipse cx="77.0024" cy="179.503" rx="12.4963" ry="12.4963" transform="rotate(-45 77.0024 179.503)" fill="#FF8F5F"/>
<ellipse cx="76.4975" cy="77.0024" rx="12.4963" ry="12.4963" transform="rotate(-45 76.4975 77.0024)" fill="#FF8F5F"/>
<circle cx="178.998" cy="179.503" r="12.4963" transform="rotate(-45 178.998 179.503)" fill="#FF8F5F"/>
<ellipse cx="179.503" cy="77.0024" rx="12.4963" ry="12.4963" transform="rotate(-45 179.503 77.0024)" fill="#FF8F5F"/>
<mask id="mask1" mask-type="alpha" maskUnits="userSpaceOnUse" x="-7" y="-6" width="269" height="269">
<path d="M-6.81537 131.534L47.2118 77.5074L98.2093 128.505L44.1822 182.532L-6.81537 131.534Z" fill="#C4C4C4"/>
<path d="M76.4975 48.2216L130.525 -5.80551L181.522 45.1921L127.495 99.2192L76.4975 48.2216Z" fill="#C4C4C4"/>
<path d="M73.4679 211.818L127.495 157.791L178.493 208.788L124.466 262.815L73.4679 211.818Z" fill="#C4C4C4"/>
<path d="M156.781 128.505L210.808 74.4778L261.806 125.475L207.778 179.503L156.781 128.505Z" fill="#C4C4C4"/>
</mask>
<g mask="url(#mask1)">
<path fill-rule="evenodd" clip-rule="evenodd" d="M79.0221 79.0221C51.9724 106.072 51.9724 149.928 79.0221 176.978C106.072 204.028 149.928 204.028 176.978 176.978C204.028 149.928 204.028 106.072 176.978 79.0221C149.928 51.9724 106.072 51.9724 79.0221 79.0221ZM73.9729 182.027C44.1345 152.189 44.1345 103.811 73.9729 73.9729C103.811 44.1345 152.189 44.1345 182.027 73.9729C211.866 103.811 211.866 152.189 182.027 182.027C152.189 211.866 103.811 211.866 73.9729 182.027Z" fill="#404040"/>
</g>
</g>
</g>
<defs>
<clipPath id="clip0">
<rect width="256" height="256" fill="white"/>
</clipPath>
<clipPath id="clip1">
<rect width="169.95" height="169.95" fill="white" transform="translate(7.82751 128) rotate(-45)"/>
</clipPath>
</defs>
</svg>
